<svg width="179" height="73" xmlns="http://www.w3.org/2000/svg" xmlns:xlink="http://www.w3.org/1999/xlink">
  <defs>
    <path id="a" d="M.094.17h22.992v45.139H.094z"/>
    <path id="c" d="M.149.734h12.404v19.315H.149z"/>
  </defs>
  <g fill="none" fill-rule="evenodd">
    <path fill="none" d="M-37-30h1440V994H-37z"/>
    <g transform="translate(129.122 .682)">
      <mask id="b" fill="#fff">
        <use xlink:href="#a"/>
      </mask>
      <path d="M1.852.94C5.086 9.32 8.787 26.313.115 44.978c-.104.242.206.455.535.242 10.393-6.815 19.454-19.884 22.436-30.56C12.74 9.354 6.516 3.874 2.751.358c-.5-.481-1.117.045-.899.581" fill="#EE2527" mask="url(#b)"/>
    </g>
    <path d="M7.984 60.222c-2.96-1.017-3.824-1.503-3.824-2.767 0-1.153 1.25-2.017 2.9-2.017 1.553 0 3.19.456 4.985 1.39a.156.156 0 0 0 .098.033.17.17 0 0 0 .107-.033c.06-.027.103-.088.12-.165l.479-3.082a.231.231 0 0 0-.128-.238c-1.635-.736-3.604-1.135-5.557-1.135-3.843 0-6.53 2.327-6.53 5.654 0 3.057 2.052 4.335 6.088 5.75 2.68.916 3.562 1.46 3.562 2.879 0 1.424-1.345 2.348-3.448 2.348-1.744 0-4.113-.651-6.022-1.646a.194.194 0 0 0-.106-.035.24.24 0 0 0-.22.191l-.486 3.017a.226.226 0 0 0 .134.238c2.18.92 4.51 1.43 6.548 1.43 4.266 0 7.13-2.391 7.13-5.946 0-3.22-2.046-4.545-5.83-5.866M33.104 52.466h-3.38c-.12 0-.22.1-.22.222v11.46c0 3.065-1.439 4.693-4.161 4.693-2.657 0-4.12-1.698-4.12-4.77V52.687c0-.121-.1-.222-.226-.222h-3.343c-.119 0-.22.1-.22.222v11.531c0 4.968 2.946 7.933 7.872 7.933 5.02 0 8.028-3.025 8.028-8.082V52.688a.225.225 0 0 0-.23-.222M44.39 61.326h-2.155v-5.588h2.23c1.63 0 3.566.49 3.566 2.792 0 1.877-1.183 2.796-3.641 2.796m.413-8.86h-6.135c-.118 0-.21.1-.21.222v18.865c0 .117.092.227.21.227h3.347c.122 0 .22-.11.22-.227v-7.001h2.155c4.678 0 7.35-2.22 7.35-6.097 0-3.695-2.655-5.989-6.937-5.989M67.642 68.396h-8.393v-4.96h6.942a.252.252 0 0 0 .17-.067.228.228 0 0 0 .05-.184l-.479-2.943a.229.229 0 0 0-.226-.186h-6.457V55.85h8.134a.225.225 0 0 0 .223-.226v-2.936a.227.227 0 0 0-.223-.222H55.678c-.117 0-.222.1-.222.222v18.863c0 .119.105.23.222.23h11.964c.12 0 .216-.111.216-.23v-2.938a.218.218 0 0 0-.216-.217M81.531 58.53c0 1.87-1.269 2.9-3.565 2.9h-2.23v-5.614h2.23c1.628 0 3.565.472 3.565 2.713zm-.016 5.43c2.458-.95 3.806-2.881 3.806-5.463 0-3.782-2.734-6.03-7.318-6.03H72.17c-.118 0-.213.1-.213.221v18.86c0 .121.095.232.213.232h3.35c.12 0 .217-.111.217-.232v-7.063h1.71l5.196 7.421a.214.214 0 0 0 .185.089s.03 0 .041-.005l3.461-.784a.236.236 0 0 0 .158-.134.214.214 0 0 0-.03-.212l-4.943-6.9zM105.57 52.487h-3.372c-.104 0-.182.056-.21.148l-5.289 14.126-5.188-14.133a.23.23 0 0 0-.208-.157h-3.671a.207.207 0 0 0-.149.112.201.201 0 0 0-.02.186l7.345 18.851a.214.214 0 0 0 .202.136h3.1c.09 0 .171-.053.202-.136l7.463-18.828a.215.215 0 0 0-.02-.211c-.037-.062-.112-.094-.185-.094M112.87 52.466h-3.377a.23.23 0 0 0-.228.222v18.865c0 .117.11.227.228.227h3.378c.125 0 .23-.11.23-.227V52.688a.227.227 0 0 0-.23-.222M131.411 68.396h-8.393v-4.96h6.944a.267.267 0 0 0 .174-.067.245.245 0 0 0 .044-.184l-.485-2.943a.215.215 0 0 0-.212-.186h-6.465V55.85h8.128c.127 0 .23-.096.23-.226v-2.936a.226.226 0 0 0-.23-.222H119.45a.22.22 0 0 0-.217.222v18.863c0 .119.097.23.217.23h11.96a.238.238 0 0 0 .226-.23v-2.938c0-.116-.107-.217-.226-.217M162 68.424h-6.92V52.688a.219.219 0 0 0-.215-.222h-3.345a.22.22 0 0 0-.22.222v18.864c0 .118.1.227.22.227h10.962a.207.207 0 0 0 .164-.083.253.253 0 0 0 .053-.182l-.487-2.902a.22.22 0 0 0-.211-.188" fill="#231F20"/>
    <g transform="translate(165.65 51.732)">
      <mask id="d" fill="#fff">
        <use xlink:href="#c"/>
      </mask>
      <path d="M12.333 16.663H3.927v-4.958h6.953c.06 0 .128-.028.17-.068a.282.282 0 0 0 .052-.184L10.61 8.51c-.012-.107-.1-.186-.219-.186H3.927V4.118h8.144a.224.224 0 0 0 .223-.227V.956a.226.226 0 0 0-.223-.222H.373A.22.22 0 0 0 .15.956v18.863c0 .118.094.23.224.23h11.96c.119 0 .22-.112.22-.23v-2.938a.223.223 0 0 0-.22-.218" fill="#231F20" mask="url(#d)"/>
    </g>
    <path d="M177.782 23.63c-8.61-1.357-16.992-4.18-22.451-6.782-3.165 8.297-9.266 17.193-15.651 23.311-.35.296-.072.813.5.414 13.64-9.45 27.856-13.99 37.615-15.886.534-.12.54-.907-.013-1.056" fill="#821642"/>
    <path d="M147.303 68.424h-6.907V52.688a.218.218 0 0 0-.223-.222h-3.343a.218.218 0 0 0-.215.222v18.864c0 .118.096.227.215.227h10.96c.06 0 .127-.026.17-.083a.235.235 0 0 0 .048-.182l-.485-2.902a.23.23 0 0 0-.22-.188" fill="#231F20"/>
  </g>
</svg>
